<?xml version="1.0" encoding="UTF-8"?>
<!DOCTYPE svg PUBLIC "-//W3C//DTD SVG 1.1//EN" "http://www.w3.org/Graphics/SVG/1.1/DTD/svg11.dtd">
<!-- Creator: CorelDRAW X7 -->
<svg xmlns="http://www.w3.org/2000/svg" xml:space="preserve" width="75mm" height="28.179mm" version="1.1" style="shape-rendering:geometricPrecision; text-rendering:geometricPrecision; image-rendering:optimizeQuality; fill-rule:evenodd; clip-rule:evenodd"
viewBox="0 0 7500 2818"
 xmlns:xlink="http://www.w3.org/1999/xlink">
 <defs>
  <style type="text/css">
   <![CDATA[
    .fil0 {fill:#1F1B20}
    .fil1 {fill:url(#id0)}
    .fil3 {fill:url(#id1)}
    .fil2 {fill:url(#id2)}
   ]]>
  </style>
  <linearGradient id="id0" gradientUnits="userSpaceOnUse" x1="3737.27" y1="2786.9" x2="3737.27" y2="0.95">
   <stop offset="0" style="stop-opacity:1; stop-color:#B97900"/>
   <stop offset="0.45098" style="stop-opacity:1; stop-color:#F6C500"/>
   <stop offset="1" style="stop-opacity:1; stop-color:#BD7700"/>
  </linearGradient>
  <linearGradient id="id1" gradientUnits="userSpaceOnUse" x1="3737.27" y1="1228.77" x2="3737.27" y2="605.69">
   <stop offset="0" style="stop-opacity:1; stop-color:#FEFEFE"/>
   <stop offset="0.45098" style="stop-opacity:1; stop-color:#F6C500"/>
   <stop offset="1" style="stop-opacity:1; stop-color:#DEA700"/>
  </linearGradient>
  <radialGradient id="id2" gradientUnits="userSpaceOnUse" gradientTransform="matrix(0.707599 -0 -0 -0.707626 1065 440)" cx="3641.68" cy="257.96" r="3020" fx="3641.68" fy="257.96">
   <stop offset="0" style="stop-opacity:1; stop-color:#F6B516"/>
   <stop offset="0.74902" style="stop-opacity:1; stop-color:#FECC00"/>
   <stop offset="1" style="stop-opacity:1; stop-color:#FECC00"/>
  </radialGradient>
 </defs>
 <g id="Layer_x0020_1">
  <metadata id="CorelCorpID_0Corel-Layer"/>
  <path class="fil0" d="M7465 210c-453,-70 -633,636 -698,839l-137 425 10 0c44,-56 92,-96 144,-121 36,-17 68,-25 99,-25 31,0 59,4 80,13 75,29 111,93 111,191 0,65 -15,139 -48,220 -31,81 -69,151 -111,211 -41,60 -85,106 -131,138 -52,37 -105,56 -159,56 -51,0 -88,-19 -112,-55 -24,-37 -37,-77 -37,-120l-10 0 -232 737 -109 0 263 -737 -10 0c-36,51 -72,91 -109,119 -50,37 -103,56 -159,56 -57,0 -102,-31 -134,-92 -25,-48 -38,-102 -38,-160 0,-8 1,-15 1,-23l-56 77c-58,79 -106,134 -147,164 -29,22 -57,34 -86,34 -31,0 -56,-11 -72,-34 -15,-22 -24,-47 -23,-75 0,-9 4,-21 7,-36 3,-15 15,-42 32,-84l223 -521 -20 0 -655 699 -33 -6 77 -693 0 0c-129,206 -231,453 -366,648 -48,68 -109,109 -178,107 -90,-3 -116,-42 -130,-57 -410,1110 -1797,694 -1804,283 -2,-99 45,-91 43,-135l107 0c-4,8 -70,61 -52,153 80,402 1190,703 1570,-249l171 -431 -12 0c-113,177 -208,300 -283,366 -49,43 -94,65 -135,65 -38,0 -67,-12 -86,-36 -20,-23 -30,-50 -30,-79 0,-30 5,-60 16,-89 15,-34 24,-55 28,-65l171 -397c12,-23 22,-43 30,-61 7,-18 11,-33 11,-46 0,-8 -3,-14 -8,-17 -5,-4 -10,-7 -18,-8 -23,-1 -33,4 -77,53 -18,21 -61,103 -86,151 -63,125 -125,242 -194,363 -48,84 -119,167 -160,197 -29,22 -57,34 -86,34 -32,0 -56,-11 -72,-34 -16,-22 -23,-47 -23,-75 0,-16 4,-38 14,-64 5,-13 14,-31 25,-56l193 -452 -18 0 -654 660 -106 0 275 -645 41 -92 0 -15c-6,-16 -14,-25 -24,-25 -8,0 -19,5 -35,15 -15,10 -27,19 -37,27 -20,18 -39,39 -58,62 -13,14 -30,36 -51,65l-130 175 -5 -2c-50,87 -110,166 -182,236 -73,73 -138,125 -194,157 -73,43 -150,65 -232,65l-201 560 -109 0 214 -560 16 -38 401 -1057 -384 516 -35 -12 409 -561c25,-33 49,-71 71,-114 14,-29 32,-65 48,-108l38 -100 55 -13 -338 960 13 0c40,-54 68,-91 83,-110 25,-32 58,-68 98,-106 29,-28 57,-50 87,-65 28,-15 57,-23 85,-23 44,0 78,11 101,32 24,22 36,54 36,95 0,39 -8,81 -23,125l40 -54c55,-75 100,-127 135,-155 34,-29 67,-43 97,-43 22,0 42,8 60,23 20,15 30,33 34,54l0 31c0,16 -2,28 -5,38 -10,23 -22,51 -36,83l-191 452 17 0 659 -658 104 0 -278 643c-13,28 -22,47 -26,57 -10,25 -15,42 -15,52 0,15 9,22 26,22 13,0 37,-13 71,-39 30,-24 116,-138 134,-170 67,-119 126,-233 189,-354 38,-73 88,-163 117,-190 42,-39 59,-44 95,-44 21,0 41,8 60,23 19,15 29,33 33,54l0 31c0,10 0,20 0,29 -10,24 -24,55 -40,92l-183 416c-21,50 -32,88 -32,113 0,14 4,24 13,30 8,6 18,9 30,9 43,0 118,-65 223,-195 68,-86 130,-173 184,-261 39,-63 73,-127 103,-191l61 -127 116 0c-99,245 -206,483 -294,730l87 -50c-18,32 5,91 73,89 34,-6 74,-30 99,-65 146,-202 255,-472 378,-673 -76,0 -153,0 -230,0l0 -31 278 0c34,0 41,6 58,17 33,21 40,60 34,116l-49 446 558 -579 149 0 -278 643c-10,26 -19,43 -23,52 -11,28 -17,47 -17,57 0,15 8,22 25,22 14,0 37,-12 71,-39 17,-14 35,-34 58,-59 21,-26 39,-49 53,-68l105 -143c13,-49 34,-103 66,-162 52,-98 113,-177 182,-238 31,-25 64,-46 101,-63 37,-17 70,-25 101,-25 41,0 71,8 94,23 33,24 51,65 51,123l10 0 151 -437c89,-257 305,-1050 794,-1003l-35 176 0 0zm-5110 2051l314 0 -24 52 -314 0 24 -52 0 0zm560 0l1339 0 -25 52 -1338 0 24 -52 0 0zm1607 0l1729 0 -24 52 -1731 0 26 -52 0 0zm1923 0l387 0 -25 52 -388 0 26 -52 0 0zm422 -1327l388 0 -25 51 -388 0 25 -51 0 0zm-3984 0l3814 0 -30 51 -3816 0 32 -51 0 0zm-1762 0l372 0c-455,-580 -1366,-398 -1416,50 -53,470 633,571 789,207l80 36c-215,385 -978,272 -918,-251 60,-521 1180,-664 1611,-42l1024 0 -12 51 -978 0c0,1 1,1 1,1 10,19 6,16 -1,38 -121,300 -258,740 -366,1078l-136 0c132,-361 307,-848 401,-1051 -13,-22 -28,-44 -42,-66l-421 0 12 -51 0 0zm1193 94l-86 0c-85,163 -276,681 -420,1074l138 0c109,-345 245,-773 368,-1074l0 0zm-316 0l-86 0c-85,163 -276,681 -419,1074l136 0c110,-345 245,-773 369,-1074l0 0zm954 402c0,-21 -5,-38 -13,-51 -8,-13 -23,-20 -43,-20 -23,0 -52,12 -85,36 -34,23 -72,59 -111,108 -60,71 -108,135 -147,194 -49,75 -87,149 -114,222l-74 204c77,-9 151,-43 226,-102 60,-47 115,-106 164,-177 41,-59 85,-134 130,-223 45,-90 67,-153 67,-191l0 0zm3559 81c0,-58 -12,-100 -38,-125 -18,-18 -42,-27 -73,-27 -42,0 -81,19 -116,57 -24,25 -51,66 -84,124 -36,64 -74,148 -113,250 -38,103 -58,181 -58,233 0,31 7,56 23,74 15,19 35,28 63,28 42,0 83,-15 124,-45 32,-24 64,-58 98,-101 33,-44 64,-94 89,-149 27,-56 47,-111 63,-167 8,-30 14,-58 17,-83 4,-25 5,-48 5,-69l0 0zm473 -33c0,-29 -3,-52 -11,-69 -13,-33 -43,-50 -90,-50 -41,0 -84,19 -130,55 -44,37 -81,77 -108,121 -27,44 -52,95 -73,153 -38,99 -56,197 -56,294 0,51 12,89 36,114 18,20 40,29 68,29 55,0 114,-47 174,-141 24,-36 47,-80 71,-131 40,-92 68,-156 81,-194 25,-72 38,-132 38,-181l0 0z"/>
  <path class="fil1" d="M7441 179c-454,-70 -635,636 -699,839l-136 425 10 0c44,-56 92,-96 144,-121 35,-17 68,-25 98,-25 32,0 58,4 81,13 74,29 111,93 111,191 0,65 -16,139 -48,220 -32,81 -69,151 -111,211 -42,60 -86,106 -131,138 -52,37 -105,56 -159,56 -51,0 -89,-19 -113,-55 -25,-37 -37,-77 -37,-120l-10 0 -233 737 -107 0 262 -737 -10 0c-36,51 -72,91 -109,119 -51,37 -104,56 -159,56 -57,0 -102,-31 -134,-92 -25,-48 -38,-102 -38,-160 0,-8 0,-15 1,-23l-56 77c-58,79 -106,134 -147,164 -28,22 -57,34 -85,34 -33,0 -56,-11 -72,-34 -17,-22 -26,-47 -25,-75 1,-9 5,-21 8,-36 3,-15 16,-42 33,-84l222 -521 -19 0 -655 699 -33 -6 75 -693 1 0c-128,206 -231,453 -366,648 -47,68 -108,109 -178,107 -89,-3 -117,-42 -131,-57 -409,1110 -1796,694 -1803,283 -2,-99 46,-91 44,-135l107 0c-4,8 -70,61 -52,153 79,402 1190,703 1569,-249l172 -431 -13 0c-113,177 -207,300 -283,366 -49,43 -93,65 -134,65 -39,0 -67,-12 -87,-36 -19,-23 -29,-50 -29,-79 0,-30 5,-60 15,-89 15,-34 25,-55 28,-65l172 -397c11,-23 21,-43 28,-61 8,-18 12,-33 12,-46 0,-8 -3,-14 -8,-17 -5,-4 -11,-7 -17,-8 -23,-1 -34,4 -77,53 -19,21 -62,103 -86,151 -63,125 -125,242 -195,363 -48,84 -120,167 -159,197 -29,22 -57,34 -87,34 -32,0 -56,-11 -71,-34 -17,-22 -25,-47 -25,-75 0,-16 5,-38 16,-64 5,-13 13,-31 25,-56l191 -452 -17 0 -654 660 -106 0 275 -645 41 -92 0 -15c-5,-16 -13,-25 -23,-25 -9,0 -21,5 -35,15 -15,10 -29,19 -39,27 -18,18 -37,39 -58,62 -11,14 -28,36 -50,65l-129 175 -5 -2c-50,87 -111,166 -182,236 -74,73 -138,125 -194,157 -74,43 -152,65 -232,65l-202 560 -109 0 215 -560 15 -38 402 -1057 -384 516 -36 -12 409 -561c26,-33 49,-71 71,-114 15,-29 31,-65 49,-108l37 -100 55 -13 -338 960 12 0c41,-54 69,-91 84,-110 25,-32 58,-68 99,-106 28,-28 57,-50 85,-65 29,-15 57,-23 87,-23 44,0 77,11 101,32 23,22 35,54 35,95 0,39 -8,81 -23,125l40 -54c56,-75 100,-127 135,-155 35,-29 67,-43 98,-43 21,0 42,8 60,23 18,15 30,33 33,54l0 31c0,16 -1,28 -6,38 -9,23 -21,51 -34,83l-193 452 19 0 659 -658 103 0 -277 643c-14,28 -23,47 -26,57 -10,25 -15,42 -15,52 0,15 8,22 25,22 13,0 37,-13 71,-39 29,-24 117,-138 135,-170 66,-119 125,-233 187,-354 39,-73 90,-163 119,-190 41,-39 59,-44 94,-44 22,0 42,8 60,23 19,15 30,33 33,54l0 31c0,10 0,20 0,29 -10,24 -23,55 -40,92l-182 416c-21,50 -33,88 -33,113 0,14 4,24 13,30 9,6 19,9 30,9 44,0 118,-65 222,-195 69,-86 131,-173 185,-260 38,-64 73,-128 103,-192l62 -127 116 0c-99,245 -207,483 -295,730l88 -50c-18,32 4,91 71,89 36,-6 75,-30 101,-65 146,-202 255,-472 378,-673 -78,0 -154,0 -231,0l0 -31 279 0c33,0 40,6 57,17 33,21 41,60 33,116l-47 446 558 -579 148 0 -278 643c-11,26 -18,43 -22,52 -11,28 -18,47 -18,57 0,15 9,22 25,22 13,0 38,-12 71,-39 17,-14 36,-34 58,-59 22,-26 39,-49 53,-68l105 -143c13,-49 35,-103 67,-162 51,-98 113,-177 182,-238 29,-25 63,-46 101,-63 36,-17 70,-25 101,-25 40,0 71,8 93,23 34,24 50,65 50,123l10 0 152 -437c89,-257 306,-1050 794,-1003l-34 176 0 0zm-5110 2051l314 0 -25 52 -314 0 25 -52 0 0zm560 0l1338 0 -24 52 -1339 0 25 -52 0 0zm1605 0l1731 0 -26 52 -1729 0 24 -52 0 0zm1923 0l388 0 -24 52 -388 0 24 -52 0 0zm423 -1327l388 0 -24 51 -388 0 24 -51 0 0zm-3985 0l3816 0 -32 51 -3814 0 30 -51 0 0zm-1761 0l371 0c-454,-580 -1365,-398 -1416,50 -53,470 635,571 791,207l79 36c-216,385 -978,272 -918,-251 60,-521 1181,-664 1612,-42l1023 0 -12 51 -978 0c0,1 0,1 0,1 11,19 7,16 0,38 -121,300 -257,740 -365,1078l-137 0c133,-361 308,-848 402,-1051 -14,-22 -28,-44 -42,-66l-423 0 13 -51 0 0zm1194 94l-87 0c-84,163 -276,681 -419,1074l136 0c110,-345 247,-773 370,-1074l0 0zm-317 0l-85 0c-86,163 -276,681 -421,1074l138 0c110,-345 245,-773 368,-1074l0 0zm954 402c0,-21 -4,-38 -13,-51 -8,-13 -22,-20 -42,-20 -24,0 -53,12 -87,36 -34,23 -70,59 -111,108 -59,71 -108,135 -147,194 -49,75 -86,149 -113,222l-73 204c75,-9 151,-43 225,-102 60,-47 115,-106 164,-177 42,-59 86,-134 129,-223 45,-90 68,-153 68,-191l0 0zm3560 81c0,-58 -13,-100 -38,-125 -18,-18 -43,-27 -73,-27 -42,0 -81,19 -117,57 -23,25 -52,66 -83,124 -37,64 -75,148 -114,250 -39,103 -58,181 -58,233 0,31 8,56 23,74 15,19 36,28 63,28 42,0 84,-15 124,-45 32,-24 65,-58 98,-101 34,-44 64,-94 90,-149 26,-56 47,-111 62,-167 8,-30 14,-58 17,-83 4,-25 6,-48 6,-69l0 0zm472 -33c0,-29 -4,-52 -10,-69 -13,-33 -44,-50 -91,-50 -40,0 -83,19 -129,55 -46,37 -82,77 -109,121 -27,44 -51,95 -72,153 -38,99 -56,197 -56,294 0,51 12,89 35,114 19,20 41,29 69,29 55,0 113,-47 174,-141 23,-36 47,-80 70,-131 41,-92 67,-156 81,-194 25,-72 38,-132 38,-181l0 0z"/>
  <path class="fil2" d="M566 149l37 0 0 77c8,-1 15,-3 18,-6 3,-3 7,-13 13,-28 8,-20 16,-33 23,-37 8,-5 21,-8 38,-8 1,0 3,0 6,0l0 28 -6 -1c-7,0 -13,1 -16,3 -4,2 -6,5 -9,9 -3,4 -6,11 -10,23 -2,7 -5,12 -7,16 -3,4 -8,8 -14,12 8,2 15,7 20,14 5,7 12,17 19,30l25 50 -45 0 -22 -47c0,-1 -1,-2 -2,-4 0,-1 -2,-3 -4,-8 -5,-9 -9,-15 -12,-17 -3,-3 -9,-4 -15,-4l0 80 -37 0 0 -182zm299 0l130 0 0 182 -37 0 0 -152 -56 0 0 78c0,23 -1,38 -2,47 -2,9 -5,16 -11,21 -7,5 -16,7 -28,7 -5,0 -12,0 -24,-1l0 -28 8 0c8,0 13,-1 16,-3 3,-3 4,-8 4,-16l0 -31 0 -104zm278 0l42 0 44 94 36 -94 39 0 -62 138c-7,15 -14,27 -21,35 -8,8 -17,11 -28,11 -11,0 -19,0 -25,-2l0 -27c5,0 10,0 14,0 8,0 15,-1 18,-4 4,-3 7,-10 11,-20l-68 -131 0 0zm309 0l139 0 0 30 -102 0 0 43 50 0c15,0 26,1 35,5 9,3 17,9 23,18 8,9 11,20 11,32 0,12 -3,23 -11,31 -6,9 -13,15 -22,18 -8,4 -19,5 -36,5l-87 0 0 -182zm37 152l37 0c11,0 19,-1 25,-2 5,-1 9,-4 12,-8 4,-4 5,-9 5,-14 0,-9 -3,-15 -9,-19 -6,-4 -17,-6 -31,-6l-39 0 0 49zm468 -37l37 11c-6,20 -16,35 -28,45 -13,10 -29,14 -50,14 -24,0 -45,-8 -61,-24 -15,-17 -23,-40 -23,-68 0,-31 8,-55 23,-71 16,-17 38,-26 63,-26 24,0 42,7 56,20 8,8 15,19 19,34l-37 9c-2,-10 -7,-17 -14,-23 -6,-5 -16,-8 -26,-8 -13,0 -24,5 -33,15 -9,9 -13,25 -13,47 0,23 4,39 13,49 9,10 19,15 33,15 9,0 19,-3 26,-9 7,-7 12,-17 15,-30l0 0zm197 -115l148 0 0 182 -37 0 0 -152 -74 0 0 152 -37 0 0 -182zm306 92c0,-19 3,-34 9,-47 4,-9 9,-18 18,-25 7,-7 15,-13 23,-16 12,-5 26,-8 41,-8 27,0 49,9 65,25 17,17 25,40 25,70 0,30 -8,53 -25,69 -16,17 -38,25 -65,25 -28,0 -50,-8 -66,-24 -17,-17 -25,-40 -25,-69l0 0zm39 -1c0,20 5,36 15,47 9,10 22,16 37,16 15,0 27,-5 36,-16 11,-11 15,-27 15,-48 0,-21 -4,-36 -14,-47 -10,-10 -22,-15 -37,-15 -15,0 -28,5 -38,16 -9,10 -14,26 -14,47l0 0zm299 91l0 -182 60 0c23,0 38,0 45,2 10,3 20,9 27,18 7,9 11,21 11,36 0,11 -2,20 -6,28 -4,8 -10,14 -16,18 -7,4 -14,7 -20,9 -9,1 -22,2 -39,2l-24 0 0 69 -38 0 0 0zm38 -152l0 52 20 0c15,0 25,-1 30,-3 5,-2 9,-4 12,-9 2,-4 4,-8 4,-14 0,-6 -2,-12 -6,-16 -4,-5 -9,-7 -15,-8 -4,-1 -13,-2 -28,-2l-17 0 0 0zm301 152l0 -152 -55 0 0 -30 148 0 0 30 -55 0 0 152 -38 0 0 0zm246 -182l35 0 0 121 75 -121 38 0 0 182 -35 0 0 -119 -75 119 -38 0 0 -182zm314 0l74 0c15,0 27,0 34,1 7,2 13,4 19,8 5,4 10,9 14,15 4,6 5,14 5,22 0,8 -2,16 -7,23 -4,7 -10,13 -18,16 11,3 19,9 25,17 6,8 10,17 10,27 0,9 -3,17 -6,25 -4,7 -10,14 -16,18 -7,5 -15,8 -25,9 -6,1 -22,1 -46,1l-63 0 0 -182zm37 30l0 42 25 0c15,0 24,0 27,0 7,-1 12,-3 16,-7 4,-4 5,-8 5,-14 0,-6 -1,-10 -4,-14 -3,-4 -9,-6 -15,-6 -4,-1 -14,-1 -32,-1l-22 0 0 0zm0 73l0 48 35 0c14,0 22,0 26,-1 6,-1 11,-3 14,-7 3,-4 5,-9 5,-15 0,-6 -1,-11 -4,-14 -2,-4 -6,-7 -11,-9 -6,-2 -17,-2 -34,-2l-31 0 0 0zm278 79l0 -182 38 0 0 71 73 0 0 -71 38 0 0 182 -38 0 0 -80 -73 0 0 80 -38 0 0 0zm308 -90c0,-19 3,-34 9,-47 4,-9 9,-18 17,-25 8,-7 16,-13 24,-16 12,-5 25,-8 41,-8 26,0 49,9 65,25 16,17 24,40 24,70 0,30 -8,53 -24,69 -16,17 -38,25 -65,25 -28,0 -50,-8 -67,-24 -16,-17 -24,-40 -24,-69l0 0zm39 -1c0,20 5,36 14,47 10,10 22,16 38,16 15,0 27,-5 36,-16 11,-11 15,-27 15,-48 0,-21 -4,-36 -15,-47 -9,-10 -21,-15 -36,-15 -16,0 -29,5 -38,16 -9,10 -14,26 -14,47l0 0zm300 -91l127 0 0 30 -89 0 0 152 -38 0 0 -182zm263 92c0,-19 3,-34 8,-47 4,-9 10,-18 17,-25 8,-7 16,-13 25,-16 11,-5 24,-8 40,-8 27,0 50,9 66,25 16,17 24,40 24,70 0,30 -8,53 -24,69 -16,17 -39,25 -65,25 -29,0 -50,-8 -67,-24 -16,-17 -24,-40 -24,-69l0 0zm39 -1c0,20 5,36 14,47 10,10 22,16 38,16 14,0 26,-5 36,-16 10,-11 15,-27 15,-48 0,-21 -5,-36 -15,-47 -9,-10 -21,-15 -36,-15 -17,0 -29,5 -38,16 -10,10 -14,26 -14,47l0 0zm412 91l0 -152 -55 0 0 -30 148 0 0 30 -55 0 0 152 -38 0 0 0zm396 0l-40 0 -17 -41 -74 0 -15 41 -40 0 72 -182 40 0 74 182 0 0zm-69 -72l-25 -68 -26 68 51 0 0 0zm217 72l0 -182 38 0 0 71 73 0 0 -71 38 0 0 182 -38 0 0 -80 -73 0 0 80 -38 0 0 0zm316 -182l38 0 0 152 73 0 0 -152 38 0 0 152 15 0 0 70 -32 0 0 -40 -132 0 0 -182zm485 182l-41 0 -16 -41 -75 0 -15 41 -40 0 73 -182 39 0 75 182 0 0zm-70 -72l-25 -68 -24 68 49 0 0 0z"/>
  <path class="fil3" d="M7441 179c-454,-70 -635,636 -699,839l-136 425 10 0c44,-56 92,-96 144,-121 35,-17 68,-25 98,-25 32,0 58,4 81,13 74,29 111,93 111,191 0,12 -1,24 -2,36 -35,8 -70,15 -106,22 11,-42 17,-80 17,-112l0 0c0,-29 -4,-52 -10,-69 -13,-33 -44,-50 -91,-50 -40,0 -83,19 -129,55 -46,37 -82,77 -109,121 -22,37 -43,79 -62,126 -32,5 -65,11 -98,16 2,-5 3,-9 4,-14 8,-30 14,-58 17,-83 4,-25 6,-48 6,-69l0 0c0,-58 -13,-100 -38,-125 -18,-18 -43,-27 -73,-27 -42,0 -81,19 -117,57 -23,25 -52,66 -83,124 -30,51 -60,115 -91,191 -46,6 -92,12 -138,18 12,-30 27,-62 45,-95 51,-98 113,-177 182,-238 29,-25 63,-46 101,-63 36,-17 70,-25 101,-25 40,0 71,8 93,23 34,24 50,65 50,123l10 0 152 -437c89,-257 306,-1050 794,-1003l-34 176 0 0zm-1810 1573l161 -376 -19 0 -373 398c-20,1 -39,3 -59,4l442 -458 148 0 -181 420c-39,4 -79,8 -119,12zm-516 43l45 -419 1 0c-84,135 -157,287 -235,431 -12,0 -25,1 -37,2 85,-156 162,-323 245,-458 -78,0 -154,0 -231,0l0 -31 279 0c33,0 40,6 57,17 33,21 41,60 33,116l-35 333c-41,3 -81,6 -122,9zm-645 31l53 -131 -13 0c-31,48 -60,92 -88,132 -14,1 -28,1 -42,1 47,-63 90,-126 130,-189 38,-64 73,-128 103,-192l62 -127 116 0c-69,169 -141,335 -208,502 -38,2 -75,3 -113,4zm-440 7l162 -373c11,-23 21,-43 28,-61 8,-18 12,-33 12,-46 0,-8 -3,-14 -8,-17 -5,-4 -11,-7 -17,-8 -23,-1 -34,4 -77,53 -19,21 -62,103 -86,151 -52,104 -104,202 -160,302l-34 -1c55,-100 106,-199 159,-302 39,-73 90,-163 119,-190 41,-39 59,-44 94,-44 22,0 42,8 60,23 19,15 30,33 33,54l0 31c0,10 0,20 0,29 -10,24 -23,55 -40,92l-134 306c-37,1 -74,1 -111,1zm-454 -3l163 -385 -17 0 -375 379 -45 -2 504 -502 103 0 -221 512c-37,-1 -75,-1 -112,-2zm-489 -17l150 -353 41 -92 0 -15c-5,-16 -13,-25 -23,-25 -9,0 -21,5 -35,15 -15,10 -29,19 -39,27 -18,18 -37,39 -58,62 -11,14 -28,36 -50,65l-129 175 -5 -2c-26,46 -56,89 -88,131 -36,-3 -72,-5 -108,-7 38,-56 77,-124 116,-204 45,-90 68,-153 68,-191l0 0c0,-21 -4,-38 -13,-51 -8,-13 -22,-20 -42,-20 -24,0 -53,12 -87,36 -34,23 -70,59 -111,108 -59,71 -108,135 -147,194 -23,36 -44,71 -62,106 -30,-2 -61,-5 -91,-8l278 -731 -384 516 -36 -12 409 -561c26,-33 49,-71 71,-114 15,-29 31,-65 49,-108l37 -100 55 -13 -338 960 12 0c41,-54 69,-91 84,-110 25,-32 58,-68 99,-106 28,-28 57,-50 85,-65 29,-15 57,-23 87,-23 44,0 77,11 101,32 23,22 35,54 35,95 0,39 -8,81 -23,125l40 -54c56,-75 100,-127 135,-155 35,-29 67,-43 98,-43 21,0 42,8 60,23 18,15 30,33 33,54l0 31c0,16 -1,28 -6,38 -9,23 -21,51 -34,83l-125 292c-36,-1 -73,-3 -109,-5zm-1057 -84c-38,-4 -77,-9 -115,-14 113,-304 228,-602 288,-718l87 0 0 0c-85,207 -176,473 -260,732zm-304 -38c-37,-5 -75,-10 -113,-16 109,-289 216,-567 275,-678l85 0 0 0c-80,197 -166,448 -247,694zm-307 -45c-37,-6 -74,-12 -110,-18 91,-247 180,-482 239,-608 -14,-22 -28,-44 -42,-66l-423 0 13 -51 0 0 371 0c-454,-580 -1365,-398 -1416,50 -53,470 635,571 791,207l79 36c-216,385 -978,272 -918,-251 60,-521 1181,-664 1612,-42l1023 0 -12 51 -978 0c0,1 0,1 0,1 11,19 7,16 0,38 -74,184 -154,420 -229,653zm5423 -743l388 0 -24 51 -388 0 24 -51 0 0zm-3985 0l3816 0 -32 51 -3814 0 30 -51 0 0z"/>
 </g>
</svg>
