<?xml version="1.0" encoding="UTF-8"?>
<!DOCTYPE svg PUBLIC "-//W3C//DTD SVG 1.1//EN" "http://www.w3.org/Graphics/SVG/1.1/DTD/svg11.dtd">
<!-- Creator: CorelDRAW X7 -->
<svg xmlns="http://www.w3.org/2000/svg" xml:space="preserve" width="297mm" height="210mm" version="1.1" style="shape-rendering:geometricPrecision; text-rendering:geometricPrecision; image-rendering:optimizeQuality; fill-rule:evenodd; clip-rule:evenodd"
viewBox="0 0 29700 21000"
 xmlns:xlink="http://www.w3.org/1999/xlink">
 <defs>
  <style type="text/css">
   <![CDATA[
    .fil0 {fill:#1F1B20}
    .fil3 {fill:#E6CFA5}
    .fil1 {fill:url(#id2)}
    .fil2 {fill:url(#id3)}
   ]]>
  </style>
   <mask id="id0">
  <linearGradient id="id1" gradientUnits="userSpaceOnUse" x1="14696" y1="12531.5" x2="14696" y2="11583.2">
   <stop offset="0" style="stop-opacity:1; stop-color:white"/>
   <stop offset="1" style="stop-opacity:0; stop-color:white"/>
  </linearGradient>
    <rect style="fill:url(#id1)" x="11027" y="11145" width="7339" height="1824"/>
   </mask>
  <linearGradient id="id2" gradientUnits="userSpaceOnUse" x1="14696" y1="13179.7" x2="14696" y2="11897.9">
   <stop offset="0" style="stop-opacity:1; stop-color:#B97900"/>
   <stop offset="0.45098" style="stop-opacity:1; stop-color:#F6C500"/>
   <stop offset="1" style="stop-opacity:1; stop-color:#BD7700"/>
  </linearGradient>
  <radialGradient id="id3" gradientUnits="userSpaceOnUse" gradientTransform="matrix(0.707599 -0 -0 -0.707629 4270 19473)" cx="14602.3" cy="11403.3" r="3020.15" fx="14602.3" fy="11403.3">
   <stop offset="0" style="stop-opacity:1; stop-color:#F6B516"/>
   <stop offset="0.74902" style="stop-opacity:1; stop-color:#FECC00"/>
   <stop offset="1" style="stop-opacity:1; stop-color:#FECC00"/>
  </radialGradient>
 </defs>
 <g id="Layer_x0020_1">
  <metadata id="CorelCorpID_0Corel-Layer"/>
  <path class="fil0" d="M18356 11355c-445,-70 -622,636 -686,839l-134 425 10 0c43,-56 90,-96 141,-121 35,-17 67,-25 97,-25 31,0 58,4 79,13 73,29 109,93 109,191 0,65 -15,139 -47,220 -31,81 -68,151 -109,211 -41,60 -84,106 -129,138 -51,37 -103,56 -156,56 -50,0 -86,-19 -110,-55 -24,-37 -36,-77 -36,-120l-10 0 -228 737 -107 0 258 -737 -10 0c-35,51 -70,91 -107,119 -49,37 -101,56 -156,56 -56,0 -100,-31 -131,-92 -25,-48 -38,-102 -38,-160 0,-8 1,-15 1,-23l-55 77c-56,79 -104,134 -144,164 -28,22 -56,34 -84,34 -31,0 -55,-11 -71,-34 -15,-22 -24,-47 -23,-75 0,-9 4,-21 7,-36 3,-15 15,-42 32,-84l219 -521 -20 0 -643 699 -32 -6 75 -693 0 0c-126,206 -227,453 -359,648 -47,68 -107,109 -175,107 -88,-3 -114,-42 -128,-57 -402,1110 -1764,694 -1771,283 -2,-99 45,-91 43,-135l105 0c-4,8 -69,61 -51,153 78,402 1168,703 1541,-249l168 -431 -12 0c-111,177 -204,300 -278,366 -48,43 -92,65 -132,65 -38,0 -66,-12 -85,-36 -19,-23 -29,-50 -29,-79 0,-30 5,-60 15,-89 15,-34 24,-55 28,-65l168 -397c12,-23 21,-43 29,-61 7,-18 11,-33 11,-46 0,-8 -3,-14 -8,-17 -5,-4 -10,-7 -17,-8 -23,-1 -33,4 -76,53 -18,21 -60,103 -84,151 -62,125 -123,242 -191,363 -47,84 -117,167 -157,197 -28,22 -56,34 -84,34 -32,0 -55,-11 -71,-34 -16,-22 -23,-47 -23,-75 0,-16 4,-38 14,-64 5,-13 14,-31 25,-56l189 -452 -18 0 -642 660 -104 0 270 -645 40 -92 0 -15c-5,-16 -13,-25 -23,-25 -8,0 -19,5 -34,15 -15,10 -27,19 -37,27 -19,18 -38,39 -57,62 -12,14 -29,36 -50,65l-127 175 -5 -2c-49,87 -108,166 -179,236 -72,73 -135,125 -190,157 -72,43 -148,65 -228,65l-198 560 -107 0 211 -560 15 -38 394 -1057 -377 516 -34 -12 401 -561c25,-33 48,-71 70,-114 14,-29 31,-65 47,-108l37 -100 54 -13 -332 960 13 0c39,-54 67,-91 82,-110 24,-32 57,-68 96,-106 28,-28 56,-50 85,-65 28,-15 56,-23 84,-23 43,0 76,11 99,32 23,22 35,54 35,95 0,39 -8,81 -22,125l39 -54c54,-75 98,-127 132,-155 34,-29 66,-43 96,-43 21,0 41,8 59,23 19,15 29,33 33,54l0 31c0,16 -2,28 -5,38 -10,23 -22,51 -35,83l-188 452 17 0 647 -658 102 0 -273 643c-13,28 -22,47 -25,57 -10,25 -15,42 -15,52 0,15 9,22 25,22 13,0 37,-13 70,-39 29,-24 114,-138 132,-170 65,-119 123,-233 185,-354 37,-73 87,-163 115,-190 41,-39 58,-44 93,-44 21,0 41,8 59,23 19,15 29,33 33,54l0 31c0,10 0,20 0,29 -10,24 -24,55 -40,92l-179 416c-21,50 -32,88 -32,113 0,14 4,24 13,30 8,6 18,9 29,9 43,0 116,-65 219,-195 67,-86 128,-173 181,-261 38,-63 72,-127 101,-191l60 -127 114 0c-97,245 -202,483 -289,730l86 -50c-18,32 5,91 71,89 34,-6 73,-30 98,-65 143,-202 250,-472 371,-673 -75,0 -151,0 -226,0l0 -31 273 0c33,0 40,6 57,17 32,21 39,60 33,116l-48 446 548 -579 146 0 -273 643c-10,26 -18,43 -22,52 -11,28 -17,47 -17,57 0,15 8,22 24,22 14,0 37,-12 70,-39 17,-14 35,-34 57,-59 21,-26 38,-49 52,-68l103 -143c13,-49 34,-103 65,-162 51,-98 111,-177 179,-238 30,-25 63,-46 99,-63 36,-17 69,-25 99,-25 40,0 70,8 92,23 33,24 50,65 50,123l10 0 148 -437c88,-257 300,-1050 780,-1003l-34 176 0 0zm-5017 2051l308 0 -24 52 -308 0 24 -52 0 0zm550 0l1314 0 -24 52 -1314 0 24 -52 0 0zm1577 0l1698 0 -24 52 -1699 0 25 -52 0 0zm1888 0l380 0 -24 52 -381 0 25 -52 0 0zm415 -1327l380 0 -24 51 -381 0 25 -51 0 0zm-3912 0l3745 0 -30 51 -3746 0 31 -51 0 0zm-1730 0l365 0c-446,-580 -1341,-398 -1390,50 -52,470 622,571 775,207l78 36c-211,385 -960,272 -901,-251 59,-521 1159,-664 1582,-42l1005 0 -12 51 -960 0c0,1 1,1 1,1 10,19 6,16 -1,38 -119,300 -253,740 -359,1078l-134 0c130,-361 302,-848 394,-1051 -13,-22 -27,-44 -41,-66l-414 0 12 -51 0 0zm1172 94l-85 0c-83,163 -271,681 -412,1074l135 0c107,-345 241,-773 362,-1074l0 0zm-311 0l-84 0c-84,163 -271,681 -412,1074l134 0c108,-345 241,-773 362,-1074l0 0zm937 402c0,-21 -5,-38 -13,-51 -8,-13 -22,-20 -42,-20 -23,0 -51,12 -84,36 -33,23 -70,59 -109,108 -58,71 -106,135 -144,194 -48,75 -85,149 -112,222l-72 204c75,-9 148,-43 221,-102 59,-47 113,-106 161,-177 41,-59 84,-134 128,-223 44,-90 66,-153 66,-191l0 0zm3494 81c0,-58 -12,-100 -37,-125 -18,-18 -42,-27 -72,-27 -41,0 -79,19 -114,57 -23,25 -50,66 -82,124 -36,64 -73,148 -111,250 -38,103 -57,181 -57,233 0,31 7,56 22,74 15,19 35,28 62,28 41,0 82,-15 122,-45 31,-24 63,-58 96,-101 33,-44 63,-94 88,-149 26,-56 46,-111 61,-167 8,-30 14,-58 17,-83 4,-25 5,-48 5,-69l0 0zm464 -33c0,-29 -3,-52 -10,-69 -13,-33 -43,-50 -89,-50 -40,0 -82,19 -127,55 -44,37 -80,77 -106,121 -27,44 -51,95 -72,153 -37,99 -55,197 -55,294 0,51 12,89 35,114 18,20 40,29 67,29 54,0 112,-47 171,-141 23,-36 46,-80 70,-131 39,-92 66,-156 79,-194 25,-72 37,-132 37,-181l0 0z"/>
  <path class="fil1" d="M18332 11324c-446,-70 -623,636 -686,839l-134 425 10 0c43,-56 90,-96 141,-121 35,-17 67,-25 97,-25 31,0 57,4 79,13 73,29 109,93 109,191 0,65 -16,139 -47,220 -31,81 -68,151 -109,211 -41,60 -84,106 -129,138 -51,37 -103,56 -156,56 -50,0 -87,-19 -111,-55 -24,-37 -36,-77 -36,-120l-10 0 -228 737 -106 0 258 -737 -10 0c-35,51 -71,91 -107,119 -50,37 -102,56 -156,56 -56,0 -100,-31 -132,-92 -24,-48 -37,-102 -37,-160 0,-8 0,-15 1,-23l-55 77c-57,79 -104,134 -144,164 -28,22 -56,34 -84,34 -32,0 -55,-11 -71,-34 -16,-22 -25,-47 -24,-75 1,-9 5,-21 8,-36 3,-15 15,-42 32,-84l218 -521 -19 0 -643 699 -32 -6 74 -693 1 0c-126,206 -227,453 -360,648 -46,68 -106,109 -174,107 -88,-3 -115,-42 -129,-57 -402,1110 -1763,694 -1770,283 -2,-99 45,-91 43,-135l105 0c-4,8 -69,61 -51,153 78,402 1168,703 1540,-249l169 -431 -13 0c-110,177 -203,300 -277,366 -48,43 -92,65 -132,65 -38,0 -66,-12 -85,-36 -19,-23 -29,-50 -29,-79 0,-30 5,-60 15,-89 15,-34 24,-55 27,-65l169 -397c11,-23 21,-43 28,-61 8,-18 12,-33 12,-46 0,-8 -3,-14 -8,-17 -5,-4 -11,-7 -17,-8 -23,-1 -33,4 -76,53 -18,21 -60,103 -84,151 -62,125 -123,242 -191,363 -48,84 -118,167 -157,197 -28,22 -56,34 -85,34 -31,0 -55,-11 -70,-34 -16,-22 -24,-47 -24,-75 0,-16 5,-38 15,-64 5,-13 13,-31 25,-56l188 -452 -17 0 -642 660 -104 0 270 -645 40 -92 0 -15c-5,-16 -13,-25 -23,-25 -8,0 -20,5 -34,15 -15,10 -28,19 -38,27 -18,18 -37,39 -57,62 -11,14 -28,36 -49,65l-127 175 -5 -2c-49,87 -109,166 -179,236 -72,73 -135,125 -190,157 -73,43 -149,65 -228,65l-198 560 -107 0 211 -560 15 -38 394 -1057 -377 516 -35 -12 402 -561c25,-33 48,-71 69,-114 15,-29 31,-65 48,-108l37 -100 54 -13 -332 960 12 0c40,-54 67,-91 82,-110 25,-32 57,-68 97,-106 28,-28 56,-50 84,-65 28,-15 56,-23 85,-23 43,0 76,11 99,32 23,22 35,54 35,95 0,39 -8,81 -23,125l39 -54c55,-75 99,-127 133,-155 34,-29 66,-43 96,-43 21,0 41,8 59,23 18,15 29,33 32,54l0 31c0,16 -1,28 -5,38 -9,23 -21,51 -34,83l-189 452 18 0 647 -658 101 0 -272 643c-13,28 -22,47 -25,57 -10,25 -15,42 -15,52 0,15 8,22 25,22 13,0 36,-13 69,-39 29,-24 115,-138 133,-170 65,-119 123,-233 184,-354 38,-73 88,-163 116,-190 41,-39 58,-44 93,-44 21,0 41,8 59,23 18,15 29,33 32,54l0 31c0,10 0,20 0,29 -10,24 -23,55 -39,92l-179 416c-21,50 -32,88 -32,113 0,14 4,24 12,30 9,6 19,9 30,9 43,0 116,-65 218,-195 68,-86 128,-173 181,-260 38,-64 72,-128 102,-192l60 -127 114 0c-97,245 -203,483 -289,730l86 -50c-18,32 4,91 70,89 35,-6 73,-30 99,-65 143,-202 250,-472 371,-673 -76,0 -151,0 -227,0l0 -31 274 0c33,0 40,6 56,17 33,21 40,60 33,116l-47 446 548 -579 146 0 -273 643c-11,26 -18,43 -22,52 -11,28 -18,47 -18,57 0,15 9,22 25,22 13,0 37,-12 70,-39 16,-14 35,-34 57,-59 21,-26 38,-49 52,-68l103 -143c12,-49 34,-103 65,-162 51,-98 111,-177 179,-238 29,-25 62,-46 99,-63 36,-17 69,-25 99,-25 40,0 70,8 92,23 33,24 49,65 49,123l10 0 149 -437c87,-257 300,-1050 779,-1003l-33 176 0 0zm-5017 2051l308 0 -24 52 -308 0 24 -52 0 0zm550 0l1314 0 -24 52 -1315 0 25 -52 0 0zm1576 0l1699 0 -25 52 -1698 0 24 -52 0 0zm1888 0l381 0 -24 52 -381 0 24 -52 0 0zm415 -1327l381 0 -24 51 -381 0 24 -51 0 0zm-3912 0l3746 0 -31 51 -3745 0 30 -51 0 0zm-1729 0l364 0c-446,-580 -1340,-398 -1390,50 -52,470 623,571 776,207l78 36c-212,385 -960,272 -901,-251 59,-521 1159,-664 1582,-42l1005 0 -12 51 -960 0c0,1 0,1 0,1 10,19 7,16 0,38 -119,300 -253,740 -359,1078l-134 0c130,-361 302,-848 394,-1051 -13,-22 -27,-44 -41,-66l-415 0 13 -51 0 0zm1172 94l-85 0c-83,163 -271,681 -412,1074l134 0c108,-345 242,-773 363,-1074l0 0zm-311 0l-84 0c-84,163 -271,681 -413,1074l135 0c108,-345 241,-773 362,-1074l0 0zm936 402c0,-21 -4,-38 -12,-51 -8,-13 -22,-20 -42,-20 -23,0 -52,12 -85,36 -33,23 -69,59 -109,108 -58,71 -106,135 -144,194 -48,75 -85,149 -111,222l-72 204c74,-9 148,-43 221,-102 59,-47 113,-106 161,-177 41,-59 84,-134 127,-223 44,-90 66,-153 66,-191l0 0zm3495 81c0,-58 -12,-100 -37,-125 -18,-18 -42,-27 -72,-27 -41,0 -79,19 -114,57 -23,25 -51,66 -82,124 -36,64 -74,148 -112,250 -38,103 -57,181 -57,233 0,31 8,56 23,74 15,19 35,28 62,28 41,0 82,-15 121,-45 32,-24 64,-58 97,-101 33,-44 62,-94 88,-149 26,-56 46,-111 61,-167 8,-30 14,-58 17,-83 3,-25 5,-48 5,-69l0 0zm464 -33c0,-29 -4,-52 -10,-69 -13,-33 -43,-50 -89,-50 -40,0 -82,19 -127,55 -45,37 -80,77 -107,121 -26,44 -50,95 -71,153 -37,99 -55,197 -55,294 0,51 12,89 35,114 18,20 40,29 67,29 54,0 111,-47 171,-141 23,-36 46,-80 69,-131 40,-92 66,-156 80,-194 24,-72 37,-132 37,-181l0 0z"/>
  <path class="fil2" d="M11582 11294l37 0 0 77c8,-1 14,-3 17,-6 3,-3 7,-13 13,-28 8,-20 16,-33 23,-37 8,-5 20,-8 37,-8 1,0 3,0 6,0l0 28 -6 -1c-7,0 -13,1 -16,3 -4,2 -6,5 -9,9 -2,4 -5,11 -9,23 -2,7 -5,12 -7,16 -3,4 -8,8 -14,12 8,2 15,7 20,14 5,7 11,17 18,30l25 50 -44 0 -22 -47c0,-1 -1,-2 -2,-4 0,-1 -2,-3 -4,-8 -5,-9 -9,-15 -12,-17 -3,-3 -8,-4 -14,-4l0 80 -37 0 0 -182zm294 0l128 0 0 182 -37 0 0 -152 -55 0 0 78c0,23 -1,38 -2,47 -2,9 -5,16 -11,21 -6,5 -15,7 -27,7 -5,0 -12,0 -24,-1l0 -28 8 0c8,0 13,-1 16,-3 3,-3 4,-8 4,-16l0 -31 0 -104zm273 0l41 0 43 94 36 -94 38 0 -61 138c-7,15 -14,27 -21,35 -7,8 -16,11 -27,11 -11,0 -19,0 -25,-2l0 -27c5,0 10,0 14,0 8,0 15,-1 18,-4 4,-3 7,-10 11,-20l-67 -131 0 0zm303 0l137 0 0 30 -100 0 0 43 49 0c14,0 25,1 34,5 9,3 17,9 23,18 7,9 10,20 10,32 0,12 -3,23 -10,31 -6,9 -13,15 -22,18 -8,4 -19,5 -35,5l-86 0 0 -182zm37 152l36 0c11,0 19,-1 24,-2 5,-1 9,-4 12,-8 4,-4 5,-9 5,-14 0,-9 -3,-15 -9,-19 -6,-4 -16,-6 -30,-6l-38 0 0 49zm459 -37l36 11c-6,20 -15,35 -27,45 -13,10 -29,14 -49,14 -24,0 -44,-8 -60,-24 -15,-17 -23,-40 -23,-68 0,-31 8,-55 23,-71 16,-17 37,-26 62,-26 23,0 41,7 55,20 8,8 14,19 18,34l-36 9c-2,-10 -7,-17 -14,-23 -6,-5 -15,-8 -25,-8 -13,0 -24,5 -33,15 -8,9 -12,25 -12,47 0,23 4,39 12,49 9,10 19,15 33,15 9,0 18,-3 25,-9 7,-7 12,-17 15,-30l0 0zm193 -115l146 0 0 182 -37 0 0 -152 -72 0 0 152 -37 0 0 -182zm301 92c0,-19 3,-34 9,-47 4,-9 9,-18 17,-25 7,-7 15,-13 23,-16 12,-5 25,-8 40,-8 27,0 48,9 64,25 17,17 25,40 25,70 0,30 -8,53 -25,69 -16,17 -37,25 -64,25 -27,0 -49,-8 -65,-24 -16,-17 -24,-40 -24,-69l0 0zm38 -1c0,20 5,36 15,47 9,10 21,16 36,16 15,0 27,-5 36,-16 10,-11 14,-27 14,-48 0,-21 -4,-36 -13,-47 -10,-10 -22,-15 -37,-15 -15,0 -27,5 -37,16 -9,10 -14,26 -14,47l0 0zm294 91l0 -182 59 0c22,0 37,0 44,2 10,3 19,9 26,18 7,9 11,21 11,36 0,11 -2,20 -6,28 -4,8 -10,14 -16,18 -6,4 -13,7 -19,9 -9,1 -22,2 -38,2l-24 0 0 69 -37 0 0 0zm37 -152l0 52 20 0c14,0 24,-1 29,-3 5,-2 9,-4 12,-9 2,-4 4,-8 4,-14 0,-6 -2,-12 -6,-16 -4,-5 -9,-7 -15,-8 -4,-1 -13,-2 -27,-2l-17 0 0 0zm296 152l0 -152 -54 0 0 -30 145 0 0 30 -54 0 0 152 -37 0 0 0zm241 -182l34 0 0 121 74 -121 37 0 0 182 -34 0 0 -119 -74 119 -37 0 0 -182zm308 0l73 0c15,0 26,0 33,1 7,2 13,4 19,8 5,4 10,9 14,15 4,6 5,14 5,22 0,8 -2,16 -7,23 -4,7 -10,13 -18,16 11,3 19,9 25,17 6,8 9,17 9,27 0,9 -2,17 -5,25 -4,7 -10,14 -16,18 -7,5 -15,8 -25,9 -6,1 -21,1 -45,1l-62 0 0 -182zm37 30l0 42 24 0c15,0 24,0 27,0 7,-1 11,-3 15,-7 4,-4 5,-8 5,-14 0,-6 -1,-10 -4,-14 -3,-4 -8,-6 -14,-6 -4,-1 -14,-1 -32,-1l-21 0 0 0zm0 73l0 48 34 0c14,0 22,0 26,-1 5,-1 10,-3 13,-7 3,-4 5,-9 5,-15 0,-6 -1,-11 -4,-14 -2,-4 -6,-7 -11,-9 -5,-2 -16,-2 -33,-2l-30 0 0 0zm273 79l0 -182 37 0 0 71 72 0 0 -71 37 0 0 182 -37 0 0 -80 -72 0 0 80 -37 0 0 0zm302 -90c0,-19 3,-34 9,-47 4,-9 9,-18 16,-25 8,-7 16,-13 24,-16 12,-5 25,-8 40,-8 26,0 48,9 64,25 16,17 24,40 24,70 0,30 -8,53 -24,69 -16,17 -37,25 -64,25 -27,0 -49,-8 -65,-24 -16,-17 -24,-40 -24,-69l0 0zm38 -1c0,20 5,36 14,47 10,10 22,16 37,16 15,0 27,-5 36,-16 10,-11 14,-27 14,-48 0,-21 -4,-36 -14,-47 -9,-10 -21,-15 -36,-15 -15,0 -28,5 -37,16 -9,10 -14,26 -14,47l0 0zm295 -91l124 0 0 30 -87 0 0 152 -37 0 0 -182zm258 92c0,-19 3,-34 8,-47 4,-9 10,-18 17,-25 7,-7 15,-13 24,-16 11,-5 24,-8 39,-8 27,0 49,9 65,25 16,17 24,40 24,70 0,30 -8,53 -24,69 -16,17 -38,25 -64,25 -28,0 -49,-8 -65,-24 -16,-17 -24,-40 -24,-69l0 0zm38 -1c0,20 5,36 14,47 10,10 22,16 37,16 14,0 26,-5 36,-16 9,-11 14,-27 14,-48 0,-21 -5,-36 -14,-47 -9,-10 -21,-15 -36,-15 -16,0 -28,5 -37,16 -10,10 -14,26 -14,47l0 0zm405 91l0 -152 -54 0 0 -30 145 0 0 30 -54 0 0 152 -37 0 0 0zm389 0l-40 0 -16 -41 -73 0 -15 41 -39 0 71 -182 39 0 73 182 0 0zm-68 -72l-25 -68 -25 68 50 0 0 0zm213 72l0 -182 37 0 0 71 72 0 0 -71 37 0 0 182 -37 0 0 -80 -72 0 0 80 -37 0 0 0zm310 -182l37 0 0 152 72 0 0 -152 37 0 0 152 15 0 0 70 -31 0 0 -40 -130 0 0 -182zm476 182l-40 0 -16 -41 -73 0 -15 41 -39 0 71 -182 39 0 73 182 0 0zm-68 -72l-25 -68 -24 68 49 0 0 0z"/>
  <path class="fil3" style="mask:url(#id0)" d="M18332 11324c-446,-70 -623,636 -686,839l-129 408c-40,13 -81,26 -122,38 -2,-50 -15,-86 -37,-109 -18,-18 -42,-27 -72,-27 -41,0 -79,19 -114,57 -23,25 -51,66 -82,124 -8,14 -15,28 -23,43 -45,12 -91,22 -137,33 46,-81 99,-148 158,-200 29,-25 62,-46 99,-63 36,-17 69,-25 99,-25 40,0 70,8 92,23 33,24 49,65 49,123l10 0 149 -437c87,-257 300,-1050 779,-1003l-33 176 0 0zm-790 1239c37,-43 78,-75 121,-96 35,-17 67,-25 97,-25 31,0 57,4 79,13l2 0c-17,7 -35,14 -52,21 -9,-2 -19,-3 -29,-3 -40,0 -82,19 -127,55 -3,3 -5,5 -8,7 -27,10 -55,19 -83,28zm-944 234l115 -276 -19 0 -284 309c-20,3 -40,6 -61,9l355 -374 146 0 -131 309c-40,8 -81,16 -121,23zm-543 84l38 -360 1 0c-73,119 -137,251 -204,379 -13,2 -25,3 -38,4 74,-141 142,-287 215,-408 -76,0 -151,0 -227,0l0 -31 274 0c33,0 40,6 56,17 33,21 40,60 33,116l-28 267c-40,6 -80,11 -120,16zm-628 60l40 -101 -13 0c-23,37 -45,72 -67,104 -13,1 -27,2 -40,3 38,-55 74,-109 107,-163 38,-64 72,-128 102,-192l60 -127 114 0c-63,157 -128,312 -190,468 -38,3 -75,6 -113,8zm-437 22l152 -358c11,-23 21,-43 28,-61 8,-18 12,-33 12,-46 0,-8 -3,-14 -8,-17 -5,-4 -11,-7 -17,-8 -23,-1 -33,4 -76,53 -18,21 -60,103 -84,151 -49,99 -98,194 -151,290l-33 0c52,-96 100,-191 150,-291 38,-73 88,-163 116,-190 41,-39 58,-44 93,-44 21,0 41,8 59,23 18,15 29,33 32,54l0 31c0,10 0,20 0,29 -10,24 -23,55 -39,92l-124 288c-36,1 -73,3 -110,4zm-450 6l158 -379 -17 0 -366 376c-14,-1 -29,-1 -44,-1l492 -500 101 0 -213 504c-17,0 -33,0 -49,0 -21,0 -41,0 -62,0zm-483 -12l148 -352 40 -92 0 -15c-5,-16 -13,-25 -23,-25 -8,0 -20,5 -34,15 -15,10 -28,19 -38,27 -18,18 -37,39 -57,62 -11,14 -28,36 -49,65l-127 175 -5 -2c-25,45 -54,89 -86,130 -35,-3 -70,-5 -105,-8 37,-55 75,-123 113,-202 44,-90 66,-153 66,-191l0 0c0,-21 -4,-38 -12,-51 -8,-13 -22,-20 -42,-20 -23,0 -52,12 -85,36 -33,23 -69,59 -109,108 -58,71 -106,135 -144,194 -22,34 -42,69 -59,103 -30,-3 -60,-6 -90,-9l271 -727 -377 516 -35 -12 402 -561c25,-33 48,-71 69,-114 15,-29 31,-65 48,-108l37 -100 54 -13 -332 960 12 0c40,-54 67,-91 82,-110 25,-32 57,-68 97,-106 28,-28 56,-50 84,-65 28,-15 56,-23 85,-23 43,0 76,11 99,32 23,22 35,54 35,95 0,39 -8,81 -23,125l39 -54c55,-75 99,-127 133,-155 34,-29 66,-43 96,-43 21,0 41,8 59,23 18,15 29,33 32,54l0 31c0,16 -1,28 -5,38 -9,23 -21,51 -34,83l-121 290c-37,-1 -73,-2 -109,-4zm-1034 -93c-38,-5 -75,-10 -112,-16 110,-299 220,-591 279,-706l85 0 0 0c-82,204 -170,467 -252,722zm-296 -45c-37,-6 -73,-13 -109,-19 104,-282 206,-549 262,-658l84 0 0 0c-77,192 -159,436 -237,677zm-299 -56c-35,-7 -70,-15 -105,-22 85,-235 168,-455 223,-576 -13,-22 -27,-44 -41,-66l-415 0 13 -51 0 0 364 0c-446,-580 -1340,-398 -1390,50 -11,107 14,194 63,262 -26,-12 -51,-24 -75,-36 -31,-66 -45,-144 -35,-234 59,-521 1159,-664 1582,-42l1005 0 -12 51 -960 0c0,1 0,1 0,1 10,19 7,16 0,38 -70,177 -145,401 -217,625zm-793 -209c-32,-10 -63,-21 -95,-32 134,-14 257,-85 313,-217l78 36c-63,114 -173,185 -296,213zm6109 -506l381 0 -24 51 -381 0 24 -51 0 0zm-3912 0l3746 0 -31 51 -3745 0 30 -51 0 0z"/>
 </g>
</svg>
