<?xml version="1.0" encoding="UTF-8"?>
<!DOCTYPE svg  PUBLIC '-//W3C//DTD SVG 1.1//EN'  'http://www.w3.org/Graphics/SVG/1.1/DTD/svg11.dtd'>
<svg width="75mm" height="28.179mm" clip-rule="evenodd" fill-rule="evenodd" image-rendering="optimizeQuality" shape-rendering="geometricPrecision" text-rendering="geometricPrecision" version="1.1" viewBox="0 0 7500 2818" xml:space="preserve" xmlns="http://www.w3.org/2000/svg">
 <defs>
  <style type="text/css">
    .fil0 {fill:#1F1B20}
    .fil1 {fill:url(#c)}
    .fil3 {fill:url(#b)}
    .fil2 {fill:url(#a)}
  </style>
  <linearGradient id="c" x1="3737.3" x2="3737.3" y1="2786.9" y2=".95" gradientUnits="userSpaceOnUse">
   <stop stop-color="#B97900" offset="0"/>
   <stop stop-color="#F6C500" offset=".45098"/>
   <stop stop-color="#BD7700" offset="1"/>
  </linearGradient>
  <linearGradient id="b" x1="3737.3" x2="3737.3" y1="1228.8" y2="605.69" gradientUnits="userSpaceOnUse">
   <stop stop-color="#FEFEFE" offset="0"/>
   <stop stop-color="#F6C500" offset=".45098"/>
   <stop stop-color="#DEA700" offset="1"/>
  </linearGradient>
  <radialGradient id="a" cx="3641.7" cy="257.96" r="3020" gradientTransform="matrix(.7076 0 0 -.70763 1065 440)" gradientUnits="userSpaceOnUse">
   <stop stop-color="#F6B516" offset="0"/>
   <stop stop-color="#FECC00" offset=".74902"/>
   <stop stop-color="#FECC00" offset="1"/>
  </radialGradient>
 </defs>
  <path class="fil0" d="m7465 210c-453-70-633 636-698 839l-137 425h10c44-56 92-96 144-121 36-17 68-25 99-25s59 4 80 13c75 29 111 93 111 191 0 65-15 139-48 220-31 81-69 151-111 211-41 60-85 106-131 138-52 37-105 56-159 56-51 0-88-19-112-55-24-37-37-77-37-120h-10l-232 737h-109l263-737h-10c-36 51-72 91-109 119-50 37-103 56-159 56-57 0-102-31-134-92-25-48-38-102-38-160 0-8 1-15 1-23l-56 77c-58 79-106 134-147 164-29 22-57 34-86 34-31 0-56-11-72-34-15-22-24-47-23-75 0-9 4-21 7-36s15-42 32-84l223-521h-20l-655 699-33-6 77-693c-129 206-231 453-366 648-48 68-109 109-178 107-90-3-116-42-130-57-410 1110-1797 694-1804 283-2-99 45-91 43-135h107c-4 8-70 61-52 153 80 402 1190 703 1570-249l171-431h-12c-113 177-208 300-283 366-49 43-94 65-135 65-38 0-67-12-86-36-20-23-30-50-30-79 0-30 5-60 16-89 15-34 24-55 28-65l171-397c12-23 22-43 30-61 7-18 11-33 11-46 0-8-3-14-8-17-5-4-10-7-18-8-23-1-33 4-77 53-18 21-61 103-86 151-63 125-125 242-194 363-48 84-119 167-160 197-29 22-57 34-86 34-32 0-56-11-72-34-16-22-23-47-23-75 0-16 4-38 14-64 5-13 14-31 25-56l193-452h-18l-654 660h-106l275-645 41-92v-15c-6-16-14-25-24-25-8 0-19 5-35 15-15 10-27 19-37 27-20 18-39 39-58 62-13 14-30 36-51 65l-130 175-5-2c-50 87-110 166-182 236-73 73-138 125-194 157-73 43-150 65-232 65l-201 560h-109l214-560 16-38 401-1057-384 516-35-12 409-561c25-33 49-71 71-114 14-29 32-65 48-108l38-100 55-13-338 960h13c40-54 68-91 83-110 25-32 58-68 98-106 29-28 57-50 87-65 28-15 57-23 85-23 44 0 78 11 101 32 24 22 36 54 36 95 0 39-8 81-23 125l40-54c55-75 100-127 135-155 34-29 67-43 97-43 22 0 42 8 60 23 20 15 30 33 34 54v31c0 16-2 28-5 38-10 23-22 51-36 83l-191 452h17l659-658h104l-278 643c-13 28-22 47-26 57-10 25-15 42-15 52 0 15 9 22 26 22 13 0 37-13 71-39 30-24 116-138 134-170 67-119 126-233 189-354 38-73 88-163 117-190 42-39 59-44 95-44 21 0 41 8 60 23s29 33 33 54v31 29c-10 24-24 55-40 92l-183 416c-21 50-32 88-32 113 0 14 4 24 13 30 8 6 18 9 30 9 43 0 118-65 223-195 68-86 130-173 184-261 39-63 73-127 103-191l61-127h116c-99 245-206 483-294 730l87-50c-18 32 5 91 73 89 34-6 74-30 99-65 146-202 255-472 378-673h-230v-31h278c34 0 41 6 58 17 33 21 40 60 34 116l-49 446 558-579h149l-278 643c-10 26-19 43-23 52-11 28-17 47-17 57 0 15 8 22 25 22 14 0 37-12 71-39 17-14 35-34 58-59 21-26 39-49 53-68l105-143c13-49 34-103 66-162 52-98 113-177 182-238 31-25 64-46 101-63s70-25 101-25c41 0 71 8 94 23 33 24 51 65 51 123h10l151-437c89-257 305-1050 794-1003l-35 176zm-5110 2051h314l-24 52h-314l24-52zm560 0h1339l-25 52h-1338l24-52zm1607 0h1729l-24 52h-1731l26-52zm1923 0h387l-25 52h-388l26-52zm422-1327h388l-25 51h-388l25-51zm-3984 0h3814l-30 51h-3816l32-51zm-1762 0h372c-455-580-1366-398-1416 50-53 470 633 571 789 207l80 36c-215 385-978 272-918-251 60-521 1180-664 1611-42h1024l-12 51h-978c0 1 1 1 1 1 10 19 6 16-1 38-121 300-258 740-366 1078h-136c132-361 307-848 401-1051-13-22-28-44-42-66h-421l12-51zm1193 94h-86c-85 163-276 681-420 1074h138c109-345 245-773 368-1074zm-316 0h-86c-85 163-276 681-419 1074h136c110-345 245-773 369-1074zm954 402c0-21-5-38-13-51s-23-20-43-20c-23 0-52 12-85 36-34 23-72 59-111 108-60 71-108 135-147 194-49 75-87 149-114 222l-74 204c77-9 151-43 226-102 60-47 115-106 164-177 41-59 85-134 130-223 45-90 67-153 67-191zm3559 81c0-58-12-100-38-125-18-18-42-27-73-27-42 0-81 19-116 57-24 25-51 66-84 124-36 64-74 148-113 250-38 103-58 181-58 233 0 31 7 56 23 74 15 19 35 28 63 28 42 0 83-15 124-45 32-24 64-58 98-101 33-44 64-94 89-149 27-56 47-111 63-167 8-30 14-58 17-83 4-25 5-48 5-69zm473-33c0-29-3-52-11-69-13-33-43-50-90-50-41 0-84 19-130 55-44 37-81 77-108 121s-52 95-73 153c-38 99-56 197-56 294 0 51 12 89 36 114 18 20 40 29 68 29 55 0 114-47 174-141 24-36 47-80 71-131 40-92 68-156 81-194 25-72 38-132 38-181z"/>
  <path class="fil1" d="m7441 179c-454-70-635 636-699 839l-136 425h10c44-56 92-96 144-121 35-17 68-25 98-25 32 0 58 4 81 13 74 29 111 93 111 191 0 65-16 139-48 220s-69 151-111 211-86 106-131 138c-52 37-105 56-159 56-51 0-89-19-113-55-25-37-37-77-37-120h-10l-233 737h-107l262-737h-10c-36 51-72 91-109 119-51 37-104 56-159 56-57 0-102-31-134-92-25-48-38-102-38-160 0-8 0-15 1-23l-56 77c-58 79-106 134-147 164-28 22-57 34-85 34-33 0-56-11-72-34-17-22-26-47-25-75 1-9 5-21 8-36s16-42 33-84l222-521h-19l-655 699-33-6 75-693h1c-128 206-231 453-366 648-47 68-108 109-178 107-89-3-117-42-131-57-409 1110-1796 694-1803 283-2-99 46-91 44-135h107c-4 8-70 61-52 153 79 402 1190 703 1569-249l172-431h-13c-113 177-207 300-283 366-49 43-93 65-134 65-39 0-67-12-87-36-19-23-29-50-29-79 0-30 5-60 15-89 15-34 25-55 28-65l172-397c11-23 21-43 28-61 8-18 12-33 12-46 0-8-3-14-8-17-5-4-11-7-17-8-23-1-34 4-77 53-19 21-62 103-86 151-63 125-125 242-195 363-48 84-120 167-159 197-29 22-57 34-87 34-32 0-56-11-71-34-17-22-25-47-25-75 0-16 5-38 16-64 5-13 13-31 25-56l191-452h-17l-654 660h-106l275-645 41-92v-15c-5-16-13-25-23-25-9 0-21 5-35 15-15 10-29 19-39 27-18 18-37 39-58 62-11 14-28 36-50 65l-129 175-5-2c-50 87-111 166-182 236-74 73-138 125-194 157-74 43-152 65-232 65l-202 560h-109l215-560 15-38 402-1057-384 516-36-12 409-561c26-33 49-71 71-114 15-29 31-65 49-108l37-100 55-13-338 960h12c41-54 69-91 84-110 25-32 58-68 99-106 28-28 57-50 85-65 29-15 57-23 87-23 44 0 77 11 101 32 23 22 35 54 35 95 0 39-8 81-23 125l40-54c56-75 100-127 135-155 35-29 67-43 98-43 21 0 42 8 60 23s30 33 33 54v31c0 16-1 28-6 38-9 23-21 51-34 83l-193 452h19l659-658h103l-277 643c-14 28-23 47-26 57-10 25-15 42-15 52 0 15 8 22 25 22 13 0 37-13 71-39 29-24 117-138 135-170 66-119 125-233 187-354 39-73 90-163 119-190 41-39 59-44 94-44 22 0 42 8 60 23 19 15 30 33 33 54v31 29c-10 24-23 55-40 92l-182 416c-21 50-33 88-33 113 0 14 4 24 13 30s19 9 30 9c44 0 118-65 222-195 69-86 131-173 185-260 38-64 73-128 103-192l62-127h116c-99 245-207 483-295 730l88-50c-18 32 4 91 71 89 36-6 75-30 101-65 146-202 255-472 378-673h-231v-31h279c33 0 40 6 57 17 33 21 41 60 33 116l-47 446 558-579h148l-278 643c-11 26-18 43-22 52-11 28-18 47-18 57 0 15 9 22 25 22 13 0 38-12 71-39 17-14 36-34 58-59 22-26 39-49 53-68l105-143c13-49 35-103 67-162 51-98 113-177 182-238 29-25 63-46 101-63 36-17 70-25 101-25 40 0 71 8 93 23 34 24 50 65 50 123h10l152-437c89-257 306-1050 794-1003l-34 176zm-5110 2051h314l-25 52h-314l25-52zm560 0h1338l-24 52h-1339l25-52zm1605 0h1731l-26 52h-1729l24-52zm1923 0h388l-24 52h-388l24-52zm423-1327h388l-24 51h-388l24-51zm-3985 0h3816l-32 51h-3814l30-51zm-1761 0h371c-454-580-1365-398-1416 50-53 470 635 571 791 207l79 36c-216 385-978 272-918-251 60-521 1181-664 1612-42h1023l-12 51h-978v1c11 19 7 16 0 38-121 300-257 740-365 1078h-137c133-361 308-848 402-1051-14-22-28-44-42-66h-423l13-51zm1194 94h-87c-84 163-276 681-419 1074h136c110-345 247-773 370-1074zm-317 0h-85c-86 163-276 681-421 1074h138c110-345 245-773 368-1074zm954 402c0-21-4-38-13-51-8-13-22-20-42-20-24 0-53 12-87 36-34 23-70 59-111 108-59 71-108 135-147 194-49 75-86 149-113 222l-73 204c75-9 151-43 225-102 60-47 115-106 164-177 42-59 86-134 129-223 45-90 68-153 68-191zm3560 81c0-58-13-100-38-125-18-18-43-27-73-27-42 0-81 19-117 57-23 25-52 66-83 124-37 64-75 148-114 250-39 103-58 181-58 233 0 31 8 56 23 74 15 19 36 28 63 28 42 0 84-15 124-45 32-24 65-58 98-101 34-44 64-94 90-149 26-56 47-111 62-167 8-30 14-58 17-83 4-25 6-48 6-69zm472-33c0-29-4-52-10-69-13-33-44-50-91-50-40 0-83 19-129 55-46 37-82 77-109 121s-51 95-72 153c-38 99-56 197-56 294 0 51 12 89 35 114 19 20 41 29 69 29 55 0 113-47 174-141 23-36 47-80 70-131 41-92 67-156 81-194 25-72 38-132 38-181z"/>
  <path class="fil2" d="m566 149h37v77c8-1 15-3 18-6s7-13 13-28c8-20 16-33 23-37 8-5 21-8 38-8h6v28l-6-1c-7 0-13 1-16 3-4 2-6 5-9 9s-6 11-10 23c-2 7-5 12-7 16-3 4-8 8-14 12 8 2 15 7 20 14s12 17 19 30l25 50h-45l-22-47c0-1-1-2-2-4 0-1-2-3-4-8-5-9-9-15-12-17-3-3-9-4-15-4v80h-37v-182zm299 0h130v182h-37v-152h-56v78c0 23-1 38-2 47-2 9-5 16-11 21-7 5-16 7-28 7-5 0-12 0-24-1v-28h8c8 0 13-1 16-3 3-3 4-8 4-16v-31-104zm278 0h42l44 94 36-94h39l-62 138c-7 15-14 27-21 35-8 8-17 11-28 11s-19 0-25-2v-27h14c8 0 15-1 18-4 4-3 7-10 11-20l-68-131zm309 0h139v30h-102v43h50c15 0 26 1 35 5 9 3 17 9 23 18 8 9 11 20 11 32s-3 23-11 31c-6 9-13 15-22 18-8 4-19 5-36 5h-87v-182zm37 152h37c11 0 19-1 25-2 5-1 9-4 12-8 4-4 5-9 5-14 0-9-3-15-9-19s-17-6-31-6h-39v49zm468-37l37 11c-6 20-16 35-28 45-13 10-29 14-50 14-24 0-45-8-61-24-15-17-23-40-23-68 0-31 8-55 23-71 16-17 38-26 63-26 24 0 42 7 56 20 8 8 15 19 19 34l-37 9c-2-10-7-17-14-23-6-5-16-8-26-8-13 0-24 5-33 15-9 9-13 25-13 47 0 23 4 39 13 49s19 15 33 15c9 0 19-3 26-9 7-7 12-17 15-30zm197-115h148v182h-37v-152h-74v152h-37v-182zm306 92c0-19 3-34 9-47 4-9 9-18 18-25 7-7 15-13 23-16 12-5 26-8 41-8 27 0 49 9 65 25 17 17 25 40 25 70s-8 53-25 69c-16 17-38 25-65 25-28 0-50-8-66-24-17-17-25-40-25-69zm39-1c0 20 5 36 15 47 9 10 22 16 37 16s27-5 36-16c11-11 15-27 15-48s-4-36-14-47c-10-10-22-15-37-15s-28 5-38 16c-9 10-14 26-14 47zm299 91v-182h60c23 0 38 0 45 2 10 3 20 9 27 18s11 21 11 36c0 11-2 20-6 28s-10 14-16 18c-7 4-14 7-20 9-9 1-22 2-39 2h-24v69h-38zm38-152v52h20c15 0 25-1 30-3s9-4 12-9c2-4 4-8 4-14s-2-12-6-16c-4-5-9-7-15-8-4-1-13-2-28-2h-17zm301 152v-152h-55v-30h148v30h-55v152h-38zm246-182h35v121l75-121h38v182h-35v-119l-75 119h-38v-182zm314 0h74c15 0 27 0 34 1 7 2 13 4 19 8 5 4 10 9 14 15s5 14 5 22-2 16-7 23c-4 7-10 13-18 16 11 3 19 9 25 17s10 17 10 27c0 9-3 17-6 25-4 7-10 14-16 18-7 5-15 8-25 9-6 1-22 1-46 1h-63v-182zm37 30v42h25 27c7-1 12-3 16-7s5-8 5-14-1-10-4-14-9-6-15-6c-4-1-14-1-32-1h-22zm0 73v48h35c14 0 22 0 26-1 6-1 11-3 14-7s5-9 5-15-1-11-4-14c-2-4-6-7-11-9-6-2-17-2-34-2h-31zm278 79v-182h38v71h73v-71h38v182h-38v-80h-73v80h-38zm308-90c0-19 3-34 9-47 4-9 9-18 17-25s16-13 24-16c12-5 25-8 41-8 26 0 49 9 65 25 16 17 24 40 24 70s-8 53-24 69c-16 17-38 25-65 25-28 0-50-8-67-24-16-17-24-40-24-69zm39-1c0 20 5 36 14 47 10 10 22 16 38 16 15 0 27-5 36-16 11-11 15-27 15-48s-4-36-15-47c-9-10-21-15-36-15-16 0-29 5-38 16-9 10-14 26-14 47zm300-91h127v30h-89v152h-38v-182zm263 92c0-19 3-34 8-47 4-9 10-18 17-25 8-7 16-13 25-16 11-5 24-8 40-8 27 0 50 9 66 25 16 17 24 40 24 70s-8 53-24 69c-16 17-39 25-65 25-29 0-50-8-67-24-16-17-24-40-24-69zm39-1c0 20 5 36 14 47 10 10 22 16 38 16 14 0 26-5 36-16s15-27 15-48-5-36-15-47c-9-10-21-15-36-15-17 0-29 5-38 16-10 10-14 26-14 47zm412 91v-152h-55v-30h148v30h-55v152h-38zm396 0h-40l-17-41h-74l-15 41h-40l72-182h40l74 182zm-69-72l-25-68-26 68h51zm217 72v-182h38v71h73v-71h38v182h-38v-80h-73v80h-38zm316-182h38v152h73v-152h38v152h15v70h-32v-40h-132v-182zm485 182h-41l-16-41h-75l-15 41h-40l73-182h39l75 182zm-70-72l-25-68-24 68h49z"/>
  <path class="fil3" d="m7441 179c-454-70-635 636-699 839l-136 425h10c44-56 92-96 144-121 35-17 68-25 98-25 32 0 58 4 81 13 74 29 111 93 111 191 0 12-1 24-2 36-35 8-70 15-106 22 11-42 17-80 17-112 0-29-4-52-10-69-13-33-44-50-91-50-40 0-83 19-129 55-46 37-82 77-109 121-22 37-43 79-62 126-32 5-65 11-98 16 2-5 3-9 4-14 8-30 14-58 17-83 4-25 6-48 6-69 0-58-13-100-38-125-18-18-43-27-73-27-42 0-81 19-117 57-23 25-52 66-83 124-30 51-60 115-91 191-46 6-92 12-138 18 12-30 27-62 45-95 51-98 113-177 182-238 29-25 63-46 101-63 36-17 70-25 101-25 40 0 71 8 93 23 34 24 50 65 50 123h10l152-437c89-257 306-1050 794-1003l-34 176zm-1810 1573l161-376h-19l-373 398c-20 1-39 3-59 4l442-458h148l-181 420c-39 4-79 8-119 12zm-516 43l45-419h1c-84 135-157 287-235 431-12 0-25 1-37 2 85-156 162-323 245-458h-231v-31h279c33 0 40 6 57 17 33 21 41 60 33 116l-35 333c-41 3-81 6-122 9zm-645 31l53-131h-13c-31 48-60 92-88 132-14 1-28 1-42 1 47-63 90-126 130-189 38-64 73-128 103-192l62-127h116c-69 169-141 335-208 502-38 2-75 3-113 4zm-440 7l162-373c11-23 21-43 28-61 8-18 12-33 12-46 0-8-3-14-8-17-5-4-11-7-17-8-23-1-34 4-77 53-19 21-62 103-86 151-52 104-104 202-160 302l-34-1c55-100 106-199 159-302 39-73 90-163 119-190 41-39 59-44 94-44 22 0 42 8 60 23 19 15 30 33 33 54v31 29c-10 24-23 55-40 92l-134 306c-37 1-74 1-111 1zm-454-3l163-385h-17l-375 379-45-2 504-502h103l-221 512c-37-1-75-1-112-2zm-489-17l150-353 41-92v-15c-5-16-13-25-23-25-9 0-21 5-35 15-15 10-29 19-39 27-18 18-37 39-58 62-11 14-28 36-50 65l-129 175-5-2c-26 46-56 89-88 131-36-3-72-5-108-7 38-56 77-124 116-204 45-90 68-153 68-191 0-21-4-38-13-51-8-13-22-20-42-20-24 0-53 12-87 36-34 23-70 59-111 108-59 71-108 135-147 194-23 36-44 71-62 106-30-2-61-5-91-8l278-731-384 516-36-12 409-561c26-33 49-71 71-114 15-29 31-65 49-108l37-100 55-13-338 960h12c41-54 69-91 84-110 25-32 58-68 99-106 28-28 57-50 85-65 29-15 57-23 87-23 44 0 77 11 101 32 23 22 35 54 35 95 0 39-8 81-23 125l40-54c56-75 100-127 135-155 35-29 67-43 98-43 21 0 42 8 60 23s30 33 33 54v31c0 16-1 28-6 38-9 23-21 51-34 83l-125 292c-36-1-73-3-109-5zm-1057-84c-38-4-77-9-115-14 113-304 228-602 288-718h87c-85 207-176 473-260 732zm-304-38c-37-5-75-10-113-16 109-289 216-567 275-678h85c-80 197-166 448-247 694zm-307-45c-37-6-74-12-110-18 91-247 180-482 239-608-14-22-28-44-42-66h-423l13-51h371c-454-580-1365-398-1416 50-53 470 635 571 791 207l79 36c-216 385-978 272-918-251 60-521 1181-664 1612-42h1023l-12 51h-978v1c11 19 7 16 0 38-74 184-154 420-229 653zm5423-743h388l-24 51h-388l24-51zm-3985 0h3816l-32 51h-3814l30-51z"/>
</svg>
